solid LeftGribbly-v5-Rob
facet normal 0.0 0.0 -1.0
  outer loop
    vertex -10.999999999999998 41.0 0.0
    vertex -8.999999999999998 38.99999999999999 0.0
    vertex -10.999999999999998 11.0 0.0
  endloop
endfacet
facet normal 0.0 0.0 -1.0
  outer loop
    vertex -8.999999999999998 38.99999999999999 0.0
    vertex -10.999999999999998 41.0 0.0
    vertex 34.0 41.0 0.0
  endloop
endfacet
facet normal 0.0 0.0 -1.0
  outer loop
    vertex -8.999999999999998 38.99999999999999 0.0
    vertex 34.0 41.0 0.0
    vertex 31.999999999999996 38.99999999999999 0.0
  endloop
endfacet
facet normal 0.0 0.0 -1.0
  outer loop
    vertex 31.999999999999996 38.99999999999999 0.0
    vertex 34.0 41.0 0.0
    vertex 31.999999999999996 1.9999999999999998 0.0
  endloop
endfacet
facet normal 0.0 0.0 -1.0
  outer loop
    vertex 31.999999999999996 1.9999999999999998 0.0
    vertex 4.229949723821846e-15 0.0 0.0
    vertex -1.9999999999999978 2.0000000000000018 0.0
  endloop
endfacet
facet normal 0.0 0.0 -1.0
  outer loop
    vertex 4.229949723821846e-15 0.0 0.0
    vertex 31.999999999999996 1.9999999999999998 0.0
    vertex 34.0 0.0 0.0
  endloop
endfacet
facet normal 0.0 0.0 -1.0
  outer loop
    vertex 34.0 0.0 0.0
    vertex 31.999999999999996 1.9999999999999998 0.0
    vertex 34.0 41.0 0.0
  endloop
endfacet
facet normal 0.0 0.0 -1.0
  outer loop
    vertex -8.999999999999998 9.0 0.0
    vertex -10.999999999999998 11.0 0.0
    vertex -8.999999999999998 38.99999999999999 0.0
  endloop
endfacet
facet normal 0.0 0.0 -1.0
  outer loop
    vertex 31.999999999999996 38.99999999999999 3.0
    vertex -8.999999999999998 9.0 3.0
    vertex -8.999999999999998 38.99999999999999 3.0
  endloop
endfacet
facet normal 0.0 0.0 -1.0
  outer loop
    vertex -8.999999999999998 9.0 3.0
    vertex 31.999999999999996 38.99999999999999 3.0
    vertex -1.9999999999999978 2.0000000000000018 3.0
  endloop
endfacet
facet normal 0.0 0.0 -1.0
  outer loop
    vertex -1.9999999999999978 2.0000000000000018 3.0
    vertex 31.999999999999996 38.99999999999999 3.0
    vertex 31.999999999999996 1.9999999999999998 3.0
  endloop
endfacet
facet normal 1.0 0.0 0.0
  outer loop
    vertex -8.999999999999998 38.99999999999999 0.0
    vertex -8.999999999999998 9.0 3.0
    vertex -8.999999999999998 9.0 0.0
  endloop
endfacet
facet normal 1.0 0.0 0.0
  outer loop
    vertex -8.999999999999998 9.0 3.0
    vertex -8.999999999999998 38.99999999999999 0.0
    vertex -8.999999999999998 38.99999999999999 3.0
  endloop
endfacet
facet normal 0.0 -1.0 0.0
  outer loop
    vertex 31.999999999999996 38.99999999999999 3.0
    vertex -8.999999999999998 38.99999999999999 0.0
    vertex 31.999999999999996 38.99999999999999 0.0
  endloop
endfacet
facet normal 0.0 -1.0 0.0
  outer loop
    vertex -8.999999999999998 38.99999999999999 0.0
    vertex 31.999999999999996 38.99999999999999 3.0
    vertex -8.999999999999998 38.99999999999999 3.0
  endloop
endfacet
facet normal -1.0 -0.0 -0.0
  outer loop
    vertex 31.999999999999996 38.99999999999999 3.0
    vertex 31.999999999999996 1.9999999999999998 0.0
    vertex 31.999999999999996 1.9999999999999998 3.0
  endloop
endfacet
facet normal -1.0 -0.0 -0.0
  outer loop
    vertex 31.999999999999996 1.9999999999999998 0.0
    vertex 31.999999999999996 38.99999999999999 3.0
    vertex 31.999999999999996 38.99999999999999 0.0
  endloop
endfacet
facet normal 6.220514299738011e-17 1.0 0.0
  outer loop
    vertex -1.9999999999999978 2.0000000000000018 3.0
    vertex 31.999999999999996 1.9999999999999998 0.0
    vertex -1.9999999999999978 2.0000000000000018 0.0
  endloop
endfacet
facet normal 6.220514299738011e-17 1.0 0.0
  outer loop
    vertex 31.999999999999996 1.9999999999999998 0.0
    vertex -1.9999999999999978 2.0000000000000018 3.0
    vertex 31.999999999999996 1.9999999999999998 3.0
  endloop
endfacet
facet normal -0.707106781186548 0.0 0.7071067811865471
  outer loop
    vertex 15.142857142857167 41.0 10.0
    vertex 13.14285714285717 0.0 8.0
    vertex 15.142857142857167 0.0 10.0
  endloop
endfacet
facet normal -0.707106781186548 0.0 0.7071067811865471
  outer loop
    vertex 13.14285714285717 0.0 8.0
    vertex 15.142857142857167 41.0 10.0
    vertex 13.14285714285717 41.0 8.0
  endloop
endfacet
facet normal 1.0 0.0 0.0
  outer loop
    vertex 13.14285714285717 41.0 8.0
    vertex 13.14285714285717 0.0 10.0
    vertex 13.14285714285717 0.0 8.0
  endloop
endfacet
facet normal 1.0 0.0 0.0
  outer loop
    vertex 13.14285714285717 0.0 10.0
    vertex 13.14285714285717 41.0 8.0
    vertex 13.14285714285717 41.0 10.0
  endloop
endfacet
facet normal 0.0 0.0 1.0
  outer loop
    vertex 4.229949723821846e-15 0.0 10.0
    vertex -0.8571428571428271 41.0 10.0
    vertex -0.8571428571428271 0.8571428571428303 10.0
  endloop
endfacet
facet normal 0.0 0.0 1.0
  outer loop
    vertex -0.8571428571428271 41.0 10.0
    vertex 4.229949723821846e-15 0.0 10.0
    vertex 5.142857142857173 41.0 10.0
  endloop
endfacet
facet normal 0.0 0.0 1.0
  outer loop
    vertex 5.142857142857173 41.0 10.0
    vertex 4.229949723821846e-15 0.0 10.0
    vertex 5.142857142857173 0.0 10.0
  endloop
endfacet
facet normal -1.0 0.0 0.0
  outer loop
    vertex -10.999999999999998 41.0 8.000000000000002
    vertex -10.999999999999998 11.0 0.0
    vertex -10.999999999999998 11.0 8.000000000000002
  endloop
endfacet
facet normal -1.0 0.0 0.0
  outer loop
    vertex -10.999999999999998 11.0 0.0
    vertex -10.999999999999998 41.0 8.000000000000002
    vertex -10.999999999999998 41.0 0.0
  endloop
endfacet
facet normal 1.0 0.0 0.0
  outer loop
    vertex 34.0 41.0 0.0
    vertex 34.0 0.0 3.0
    vertex 34.0 0.0 0.0
  endloop
endfacet
facet normal 1.0 0.0 0.0
  outer loop
    vertex 34.0 0.0 3.0
    vertex 34.0 41.0 0.0
    vertex 34.0 41.0 3.0
  endloop
endfacet
facet normal 0.8682431421244605 -7.927651135946682e-18 0.4961389383568316
  outer loop
    vertex 34.0 41.0 3.0
    vertex 31.14285714285716 0.0 7.999999999999998
    vertex 34.0 0.0 3.0
  endloop
endfacet
facet normal 0.8682431421244605 -7.927651135946682e-18 0.4961389383568316
  outer loop
    vertex 31.14285714285716 0.0 7.999999999999998
    vertex 34.0 41.0 3.0
    vertex 31.14285714285716 41.0 7.999999999999999
  endloop
endfacet
facet normal -0.707106781186548 0.0 0.7071067811865471
  outer loop
    vertex 23.142857142857164 41.0 10.0
    vertex 21.142857142857167 0.0 8.0
    vertex 23.142857142857164 0.0 10.0
  endloop
endfacet
facet normal -0.707106781186548 0.0 0.7071067811865471
  outer loop
    vertex 21.142857142857167 0.0 8.0
    vertex 23.142857142857164 41.0 10.0
    vertex 21.142857142857167 41.0 8.0
  endloop
endfacet
facet normal 0.0 0.0 1.0
  outer loop
    vertex 13.14285714285717 0.0 10.0
    vertex 7.14285714285717 41.0 10.0
    vertex 7.14285714285717 0.0 10.0
  endloop
endfacet
facet normal 0.0 0.0 1.0
  outer loop
    vertex 7.14285714285717 41.0 10.0
    vertex 13.14285714285717 0.0 10.0
    vertex 13.14285714285717 41.0 10.0
  endloop
endfacet
facet normal 3.524958103184878e-16 -5.1584752729534715e-17 1.0
  outer loop
    vertex 31.14285714285716 0.0 7.999999999999998
    vertex 29.142857142857164 41.0 8.0
    vertex 29.142857142857164 0.0 7.999999999999998
  endloop
endfacet
facet normal 3.524958103184878e-16 -5.1584752729534715e-17 1.0
  outer loop
    vertex 29.142857142857164 41.0 8.0
    vertex 31.14285714285716 0.0 7.999999999999998
    vertex 31.14285714285716 41.0 7.999999999999999
  endloop
endfacet
facet normal 1.0 0.0 0.0
  outer loop
    vertex 29.142857142857164 41.0 8.0
    vertex 29.142857142857164 0.0 10.0
    vertex 29.142857142857164 0.0 7.999999999999998
  endloop
endfacet
facet normal 1.0 0.0 0.0
  outer loop
    vertex 29.142857142857164 0.0 10.0
    vertex 29.142857142857164 41.0 8.0
    vertex 29.142857142857164 41.0 10.0
  endloop
endfacet
facet normal 0.0 0.0 1.0
  outer loop
    vertex 29.142857142857164 0.0 10.0
    vertex 23.142857142857164 41.0 10.0
    vertex 23.142857142857164 0.0 10.0
  endloop
endfacet
facet normal 0.0 0.0 1.0
  outer loop
    vertex 23.142857142857164 41.0 10.0
    vertex 29.142857142857164 0.0 10.0
    vertex 29.142857142857164 41.0 10.0
  endloop
endfacet
facet normal 1.0 0.0 0.0
  outer loop
    vertex 21.142857142857167 41.0 8.0
    vertex 21.142857142857167 0.0 10.0
    vertex 21.142857142857167 0.0 8.0
  endloop
endfacet
facet normal 1.0 0.0 0.0
  outer loop
    vertex 21.142857142857167 0.0 10.0
    vertex 21.142857142857167 41.0 8.0
    vertex 21.142857142857167 41.0 10.0
  endloop
endfacet
facet normal 0.0 1.0 0.0
  outer loop
    vertex -10.999999999999998 41.0 8.000000000000002
    vertex 34.0 41.0 0.0
    vertex -10.999999999999998 41.0 0.0
  endloop
endfacet
facet normal 0.0 1.0 0.0
  outer loop
    vertex 34.0 41.0 0.0
    vertex -10.999999999999998 41.0 8.000000000000002
    vertex 34.0 41.0 3.0
  endloop
endfacet
facet normal 0.0 1.0 0.0
  outer loop
    vertex 34.0 41.0 3.0
    vertex -10.999999999999998 41.0 8.000000000000002
    vertex 5.142857142857173 41.0 8.0
  endloop
endfacet
facet normal 0.0 1.0 0.0
  outer loop
    vertex 34.0 41.0 3.0
    vertex 5.142857142857173 41.0 8.0
    vertex 31.14285714285716 41.0 7.999999999999999
  endloop
endfacet
facet normal 0.0 1.0 0.0
  outer loop
    vertex 5.142857142857173 41.0 8.0
    vertex -10.999999999999998 41.0 8.000000000000002
    vertex -0.8571428571428271 41.0 8.000000000000002
  endloop
endfacet
facet normal 0.0 1.0 0.0
  outer loop
    vertex 5.142857142857173 41.0 8.0
    vertex -0.8571428571428271 41.0 8.000000000000002
    vertex 5.142857142857173 41.0 10.0
  endloop
endfacet
facet normal 0.0 1.0 0.0
  outer loop
    vertex 5.142857142857173 41.0 10.0
    vertex -0.8571428571428271 41.0 8.000000000000002
    vertex -0.8571428571428271 41.0 10.0
  endloop
endfacet
facet normal 0.0 1.0 0.0
  outer loop
    vertex 7.14285714285717 41.0 10.0
    vertex 13.14285714285717 41.0 8.0
    vertex 5.142857142857173 41.0 8.0
  endloop
endfacet
facet normal 0.0 1.0 0.0
  outer loop
    vertex 13.14285714285717 41.0 8.0
    vertex 7.14285714285717 41.0 10.0
    vertex 13.14285714285717 41.0 10.0
  endloop
endfacet
facet normal 0.0 1.0 0.0
  outer loop
    vertex 15.142857142857167 41.0 10.0
    vertex 21.142857142857167 41.0 8.0
    vertex 13.14285714285717 41.0 8.0
  endloop
endfacet
facet normal 0.0 1.0 0.0
  outer loop
    vertex 21.142857142857167 41.0 8.0
    vertex 15.142857142857167 41.0 10.0
    vertex 21.142857142857167 41.0 10.0
  endloop
endfacet
facet normal 0.0 1.0 0.0
  outer loop
    vertex 5.142857142857173 41.0 8.0
    vertex 29.142857142857164 41.0 8.0
    vertex 31.14285714285716 41.0 7.999999999999999
  endloop
endfacet
facet normal 0.0 1.0 0.0
  outer loop
    vertex 29.142857142857164 41.0 8.0
    vertex 5.142857142857173 41.0 8.0
    vertex 13.14285714285717 41.0 8.0
  endloop
endfacet
facet normal 0.0 1.0 0.0
  outer loop
    vertex 29.142857142857164 41.0 8.0
    vertex 13.14285714285717 41.0 8.0
    vertex 21.142857142857167 41.0 8.0
  endloop
endfacet
facet normal 0.0 1.0 0.0
  outer loop
    vertex 29.142857142857164 41.0 8.0
    vertex 21.142857142857167 41.0 8.0
    vertex 23.142857142857164 41.0 10.0
  endloop
endfacet
facet normal 0.0 1.0 0.0
  outer loop
    vertex 29.142857142857164 41.0 8.0
    vertex 23.142857142857164 41.0 10.0
    vertex 29.142857142857164 41.0 10.0
  endloop
endfacet
facet normal 3.1559254276444926e-17 -1.7885008682016197e-17 1.0
  outer loop
    vertex -0.8571428571428271 0.8571428571428303 8.0
    vertex -10.999999999999998 41.0 8.000000000000002
    vertex -10.999999999999998 11.0 8.000000000000002
  endloop
endfacet
facet normal 3.1559254276444926e-17 -1.7885008682016197e-17 1.0
  outer loop
    vertex -10.999999999999998 41.0 8.000000000000002
    vertex -0.8571428571428271 0.8571428571428303 8.0
    vertex -0.8571428571428271 41.0 8.000000000000002
  endloop
endfacet
facet normal 0.0 0.0 1.0
  outer loop
    vertex 21.142857142857167 0.0 10.0
    vertex 15.142857142857167 41.0 10.0
    vertex 15.142857142857167 0.0 10.0
  endloop
endfacet
facet normal 0.0 0.0 1.0
  outer loop
    vertex 15.142857142857167 41.0 10.0
    vertex 21.142857142857167 0.0 10.0
    vertex 21.142857142857167 41.0 10.0
  endloop
endfacet
facet normal -1.0 0.0 0.0
  outer loop
    vertex -0.8571428571428271 41.0 10.0
    vertex -0.8571428571428271 0.8571428571428303 8.0
    vertex -0.8571428571428271 0.8571428571428303 10.0
  endloop
endfacet
facet normal -1.0 0.0 0.0
  outer loop
    vertex -0.8571428571428271 0.8571428571428303 8.0
    vertex -0.8571428571428271 41.0 10.0
    vertex -0.8571428571428271 41.0 8.000000000000002
  endloop
endfacet
facet normal 0.0 -1.0 0.0
  outer loop
    vertex 29.142857142857164 0.0 10.0
    vertex 21.142857142857167 0.0 8.0
    vertex 29.142857142857164 0.0 7.999999999999998
  endloop
endfacet
facet normal 0.0 -1.0 0.0
  outer loop
    vertex 21.142857142857167 0.0 8.0
    vertex 29.142857142857164 0.0 10.0
    vertex 23.142857142857164 0.0 10.0
  endloop
endfacet
facet normal 0.0 -1.0 0.0
  outer loop
    vertex 21.142857142857167 0.0 10.0
    vertex 13.14285714285717 0.0 8.0
    vertex 21.142857142857167 0.0 8.0
  endloop
endfacet
facet normal 0.0 -1.0 0.0
  outer loop
    vertex 13.14285714285717 0.0 8.0
    vertex 21.142857142857167 0.0 10.0
    vertex 15.142857142857167 0.0 10.0
  endloop
endfacet
facet normal 0.0 -1.0 0.0
  outer loop
    vertex 13.14285714285717 0.0 10.0
    vertex 5.142857142857173 0.0 8.0
    vertex 13.14285714285717 0.0 8.0
  endloop
endfacet
facet normal 0.0 -1.0 0.0
  outer loop
    vertex 5.142857142857173 0.0 8.0
    vertex 13.14285714285717 0.0 10.0
    vertex 7.14285714285717 0.0 10.0
  endloop
endfacet
facet normal 0.0 -1.0 0.0
  outer loop
    vertex 34.0 0.0 3.0
    vertex 4.229949723821846e-15 0.0 0.0
    vertex 34.0 0.0 0.0
  endloop
endfacet
facet normal 0.0 -1.0 0.0
  outer loop
    vertex 4.229949723821846e-15 0.0 0.0
    vertex 34.0 0.0 3.0
    vertex 5.142857142857173 0.0 8.0
  endloop
endfacet
facet normal 0.0 -1.0 0.0
  outer loop
    vertex 4.229949723821846e-15 0.0 0.0
    vertex 5.142857142857173 0.0 8.0
    vertex 4.229949723821846e-15 0.0 10.0
  endloop
endfacet
facet normal 0.0 -1.0 0.0
  outer loop
    vertex 5.142857142857173 0.0 8.0
    vertex 34.0 0.0 3.0
    vertex 29.142857142857164 0.0 7.999999999999998
  endloop
endfacet
facet normal 0.0 -1.0 0.0
  outer loop
    vertex 29.142857142857164 0.0 7.999999999999998
    vertex 34.0 0.0 3.0
    vertex 31.14285714285716 0.0 7.999999999999998
  endloop
endfacet
facet normal 0.0 -1.0 0.0
  outer loop
    vertex 5.142857142857173 0.0 8.0
    vertex 29.142857142857164 0.0 7.999999999999998
    vertex 21.142857142857167 0.0 8.0
  endloop
endfacet
facet normal 0.0 -1.0 0.0
  outer loop
    vertex 5.142857142857173 0.0 8.0
    vertex 21.142857142857167 0.0 8.0
    vertex 13.14285714285717 0.0 8.0
  endloop
endfacet
facet normal 0.0 -1.0 0.0
  outer loop
    vertex 4.229949723821846e-15 0.0 10.0
    vertex 5.142857142857173 0.0 8.0
    vertex 5.142857142857173 0.0 10.0
  endloop
endfacet
facet normal -0.707106781186548 0.0 0.7071067811865471
  outer loop
    vertex 7.14285714285717 41.0 10.0
    vertex 5.142857142857173 0.0 8.0
    vertex 7.14285714285717 0.0 10.0
  endloop
endfacet
facet normal -0.707106781186548 0.0 0.7071067811865471
  outer loop
    vertex 5.142857142857173 0.0 8.0
    vertex 7.14285714285717 41.0 10.0
    vertex 5.142857142857173 41.0 8.0
  endloop
endfacet
facet normal 1.0 0.0 0.0
  outer loop
    vertex 5.142857142857173 41.0 8.0
    vertex 5.142857142857173 0.0 10.0
    vertex 5.142857142857173 0.0 8.0
  endloop
endfacet
facet normal 1.0 0.0 0.0
  outer loop
    vertex 5.142857142857173 0.0 10.0
    vertex 5.142857142857173 41.0 8.0
    vertex 5.142857142857173 41.0 10.0
  endloop
endfacet
facet normal -0.7071067811865476 -0.7071067811865476 4.826572247731003e-17
  outer loop
    vertex -10.999999999999998 11.0 8.000000000000002
    vertex -1.9999999999999978 2.0000000000000018 3.0
    vertex -0.8571428571428271 0.8571428571428303 8.0
  endloop
endfacet
facet normal -0.7071067811865476 -0.7071067811865476 4.826572247731003e-17
  outer loop
    vertex -1.9999999999999978 2.0000000000000018 3.0
    vertex -10.999999999999998 11.0 8.000000000000002
    vertex -8.999999999999998 9.0 3.0
  endloop
endfacet
facet normal -0.7071067811865476 -0.7071067811865476 4.826572247731003e-17
  outer loop
    vertex -8.999999999999998 9.0 3.0
    vertex -10.999999999999998 11.0 8.000000000000002
    vertex -8.999999999999998 9.0 0.0
  endloop
endfacet
facet normal -0.7071067811865476 -0.7071067811865476 4.826572247731003e-17
  outer loop
    vertex -8.999999999999998 9.0 0.0
    vertex -10.999999999999998 11.0 8.000000000000002
    vertex -10.999999999999998 11.0 0.0
  endloop
endfacet
facet normal -0.7071067811865476 -0.7071067811865476 4.826572247731003e-17
  outer loop
    vertex -0.8571428571428271 0.8571428571428303 10.0
    vertex 4.229949723821846e-15 0.0 0.0
    vertex 4.229949723821846e-15 0.0 10.0
  endloop
endfacet
facet normal -0.7071067811865476 -0.7071067811865476 4.826572247731003e-17
  outer loop
    vertex 4.229949723821846e-15 0.0 0.0
    vertex -0.8571428571428271 0.8571428571428303 10.0
    vertex -0.8571428571428271 0.8571428571428303 8.0
  endloop
endfacet
facet normal -0.7071067811865476 -0.7071067811865476 4.826572247731003e-17
  outer loop
    vertex 4.229949723821846e-15 0.0 0.0
    vertex -0.8571428571428271 0.8571428571428303 8.0
    vertex -1.9999999999999978 2.0000000000000018 0.0
  endloop
endfacet
facet normal -0.7071067811865476 -0.7071067811865476 4.826572247731003e-17
  outer loop
    vertex -1.9999999999999978 2.0000000000000018 0.0
    vertex -0.8571428571428271 0.8571428571428303 8.0
    vertex -1.9999999999999978 2.0000000000000018 3.0
  endloop
endfacet
endsolid LeftGribbly-v5-Rob
